<svg width="512" height="512" viewBox="0 0 512 512" fill="none" xmlns="http://www.w3.org/2000/svg">
<g clip-path="url(#clip0)">
<path d="M424.473 301H311.258L370.219 206.922C383.781 185.41 390.953 160.539 390.953 135C390.953 60.5625 330.391 0 255.953 0C181.512 0 120.953 60.5625 120.953 135C120.953 160.539 128.121 185.41 141.664 206.887L200.648 301H87.4297L0 512H511.902L424.473 301ZM347.539 421H441.723L467 482H355.316L347.539 421ZM325.07 482H186.684L194.266 421H317.297L325.07 482ZM429.293 391H343.715L336.066 331H404.43L429.293 391ZM150.953 135C150.953 77.1016 198.055 30 255.953 30C313.848 30 360.953 77.1016 360.953 135C360.953 154.867 355.383 174.203 344.82 190.953L255.953 332.754L167.062 190.922C156.523 174.203 150.953 154.867 150.953 135V135ZM255.953 389.246L292.457 331H305.824L313.473 391H197.992L205.453 331H219.449L255.953 389.246ZM107.473 331H175.223L167.762 391H82.6094L107.473 331ZM70.1797 421H164.035L156.449 482H44.9023L70.1797 421Z" fill="#00358E"/>
<path d="M330.953 135C330.953 93.6445 297.309 60 255.953 60C214.598 60 180.953 93.6445 180.953 135C180.953 176.355 214.598 210 255.953 210C297.309 210 330.953 176.355 330.953 135ZM210.953 135C210.953 110.188 231.141 90 255.953 90C280.766 90 300.953 110.188 300.953 135C300.953 159.812 280.766 180 255.953 180C231.141 180 210.953 159.812 210.953 135Z" fill="#00358E"/>
</g>
<defs>
<clipPath id="clip0">
<rect width="512" height="512" fill="white"/>
</clipPath>
</defs>
</svg>
