<svg width="512" height="512" viewBox="0 0 512 512" fill="none" xmlns="http://www.w3.org/2000/svg">
<path d="M488 488V248H472V216H456V168H440V136H424V168H408V216H392V38.24L344 47.84V24H328V51.04L312 54.24V8H296V57.44L280 60.64V24H264V63.848L216 73.448V120H72V136H88V232.728C85.376 232.296 82.72 232 80 232C49.128 232 24 260.712 24 296C24 328.176 44.912 354.808 72 359.272V369.696C65.304 363.64 57.008 360 48 360C25.944 360 8 381.528 8 408C8 431.184 21.768 450.568 40 455.032V488H8V504H504V488H488ZM136 480C136 466.768 146.768 456 160 456C168.64 456 176.656 460.68 180.92 468.216L183.4 472.608L192 472C194.352 472 196.832 472.456 199.584 473.384L207.36 475.992L209.784 468.16C214.992 451.32 230.352 440 248 440C262.544 440 275.968 447.928 283.032 460.696L288.032 469.752L295.536 462.632C304.552 454.088 319.44 454.088 328.456 462.632L335.96 469.752L340.96 460.696C348.032 447.928 361.456 440 376 440C393.368 440 408.648 451.104 414.024 467.632L416.272 474.536L423.368 472.968C439.224 469.448 454.72 475.976 463.832 488H137.552C136.64 485.424 136 482.76 136 480V480ZM472 264V473.096C467.36 468.344 461.976 464.432 456 461.568V280H344V434.16C339.512 437.296 335.424 441.024 331.984 445.392C330.704 444.648 329.36 444.016 328 443.432V264H472ZM376 424C370.496 424 365.128 424.896 360 426.432V296H392V426.32C386.904 424.808 381.528 424 376 424ZM408 296H440V456.752C435.656 456.12 431.232 455.816 426.712 456.256C422.48 447.192 415.936 439.688 408 434.144V296ZM344 248V232H456V248H344ZM424 184H440V216H424V184ZM376 57.76V216H328V248H312V440.12C305.024 440.12 298.056 441.88 292.016 445.392C281.496 432.024 265.32 424 248 424C242.464 424 237.088 424.8 232 426.296V86.552L376 57.76ZM104 136H216V434.088C208 439.656 201.424 447.232 197.192 456.4C195.504 456.168 193.792 456.04 192.016 456.024C184.52 446.032 172.664 440 160 440C137.944 440 120 457.944 120 480C120 482.704 120.36 485.368 120.896 488H88V458.952L136 402.96V383.272C163.088 378.808 184 352.176 184 320C184 295.92 172.288 274.92 155.048 264H168V248H152V262.264C144.712 258.288 136.592 256 128 256C126.624 256 125.216 256.088 123.792 256.224C118.504 248.632 111.736 242.48 104 238.264V136ZM136 296C136 287.6 134.536 279.592 131.952 272.24C152.16 274.632 168 295.136 168 320C168 346.472 150.056 368 128 368C117.904 368 108.312 363.352 100.992 355.288C121.488 345.776 136 322.8 136 296ZM88 364.648C96.584 374.712 107.776 381.288 120 383.296V397.048L88 434.384V364.648ZM40 296C40 269.528 57.944 248 80 248C102.056 248 120 269.528 120 296C120 319.184 106.232 338.568 88 343.032V288H72V343.032C53.768 338.568 40 319.184 40 296ZM24 408C24 390.352 34.768 376 48 376C61.232 376 72 390.352 72 408C72 425.648 61.232 440 48 440C34.768 440 24 425.648 24 408ZM56 455.032C61.92 453.584 67.344 450.52 72 446.312V488H56V455.032Z" fill="#00358E"/>
<path d="M296 104H248V168H296V104ZM280 152H264V120H280V152Z" fill="#00358E"/>
<path d="M296 184H248V248H296V184ZM280 232H264V200H280V232Z" fill="#00358E"/>
<path d="M296 264H248V328H296V264ZM280 312H264V280H280V312Z" fill="#00358E"/>
<path d="M296 344H248V408H296V344ZM280 392H264V360H280V392Z" fill="#00358E"/>
<path d="M360 104H312V168H360V104ZM344 152H328V120H344V152Z" fill="#00358E"/>
<path d="M120 152H136V168H120V152Z" fill="#00358E"/>
<path d="M152 152H168V168H152V152Z" fill="#00358E"/>
<path d="M184 152H200V168H184V152Z" fill="#00358E"/>
<path d="M120 184H136V200H120V184Z" fill="#00358E"/>
<path d="M152 184H168V200H152V184Z" fill="#00358E"/>
<path d="M184 184H200V200H184V184Z" fill="#00358E"/>
<path d="M152 216H168V232H152V216Z" fill="#00358E"/>
<path d="M120 216H136V232H120V216Z" fill="#00358E"/>
<path d="M184 216H200V232H184V216Z" fill="#00358E"/>
<path d="M184 248H200V264H184V248Z" fill="#00358E"/>
</svg>
