<svg width="512" height="505" viewBox="0 0 512 505" fill="none" xmlns="http://www.w3.org/2000/svg">
<g clip-path="url(#clip0)">
<path d="M215.922 352.689H231.953V367.718H215.922V352.689Z" fill="#00358E"/>
<path d="M247.984 352.689H264.016V367.718H247.984V352.689Z" fill="#00358E"/>
<path d="M280.047 352.689H296.078V367.718H280.047V352.689Z" fill="#00358E"/>
<path d="M433.158 219.444C418.768 191.986 397.829 167.882 372.608 149.738L363.831 161.938C381.466 174.626 396.832 190.465 409.035 208.408H358.592C353.767 195.088 347.974 182.639 341.263 171.309C353.513 147.579 359.703 124.962 359.703 103.703C359.703 46.5209 313.182 0 256 0C198.818 0 152.297 46.5209 152.297 103.703C152.297 124.962 158.487 147.579 170.739 171.308C164.027 182.639 158.234 195.087 153.409 208.407H102.966C115.169 190.464 130.535 174.625 148.17 161.937L139.393 149.737C114.172 167.881 93.2341 191.985 78.843 219.443C63.971 247.819 56.1096 279.863 56.1096 312.11C56.1096 422.33 145.78 512 256 512C366.22 512 455.89 422.33 455.89 312.11C455.89 279.863 448.029 247.819 433.158 219.444V219.444ZM248.485 496.491C224.07 493.378 201.101 475.142 183.14 444.353C177.995 435.533 173.429 425.973 169.475 415.812H248.485V496.491ZM263.515 496.491V415.812H342.525C338.571 425.974 334.005 435.533 328.86 444.353C310.899 475.142 287.93 493.378 263.515 496.491ZM263.515 400.783V384.25H248.485V400.783H164.213C156.45 376.037 152.043 348.426 151.389 319.624H248.485V336.157H263.515V319.624H360.611C359.957 348.426 355.55 376.037 347.787 400.783H263.515ZM71.3043 319.624H136.356C136.981 348.207 141.147 375.756 148.514 400.783H93.8363C80.5093 376.507 72.4826 348.934 71.3043 319.624ZM205.968 223.436C224.4 245.705 241.916 261.705 248.485 267.462V304.595H151.393C152.066 276.04 156.556 248.26 164.314 223.436H205.968ZM306.032 223.436H347.686C355.444 248.26 359.934 276.04 360.607 304.595H263.515V267.462C270.085 261.705 287.6 245.705 306.032 223.436ZM375.644 319.624H440.696C439.517 348.934 431.491 376.507 418.164 400.783H363.485C370.852 375.756 375.019 348.207 375.644 319.624ZM418.225 223.436C418.769 224.429 419.32 225.418 419.846 226.421C432.439 250.447 439.575 277.327 440.689 304.595H375.644C375.025 275.912 370.869 248.406 363.517 223.436H418.225ZM342.456 208.407H317.825C323.279 201.06 328.205 193.799 332.601 186.632C336.206 193.48 339.499 200.76 342.456 208.407ZM256 15.0294C304.895 15.0294 344.673 54.808 344.673 103.703C344.673 169.296 275.122 236.715 255.997 254.01C236.866 236.727 167.327 169.374 167.327 103.703C167.327 54.808 207.106 15.0294 256 15.0294V15.0294ZM179.399 186.632C183.795 193.799 188.721 201.059 194.175 208.407H169.544C172.501 200.76 175.794 193.48 179.399 186.632V186.632ZM92.155 226.421C92.68 225.419 93.2311 224.429 93.7762 223.436H148.484C141.132 248.406 136.977 275.912 136.357 304.595H71.3113C72.4255 277.327 79.5614 250.447 92.155 226.421V226.421ZM103.042 415.812H153.443C158.124 428.752 163.71 440.873 170.158 451.927C178.58 466.363 188.097 478.378 198.419 487.777C159.242 474.904 125.801 449.273 103.042 415.812V415.812ZM313.581 487.777C323.903 478.378 333.42 466.363 341.842 451.927C348.289 440.873 353.875 428.752 358.557 415.812H408.958C386.199 449.273 352.758 474.904 313.581 487.777Z" fill="#00358E"/>
<path d="M327.64 103.702C327.64 64.2003 295.502 32.0625 256 32.0625C216.498 32.0625 184.36 64.2003 184.36 103.702C184.36 143.205 216.498 175.342 256 175.342C295.502 175.342 327.64 143.205 327.64 103.702ZM256 47.0919C275.538 47.0919 292.795 57.0423 302.973 72.1408H209.027C219.205 57.0423 236.462 47.0919 256 47.0919V47.0919ZM201.858 87.1701H310.142C311.743 92.4024 312.611 97.9522 312.611 103.702C312.611 109.453 311.743 115.002 310.142 120.235H201.858C200.257 115.002 199.389 109.453 199.389 103.702C199.389 97.9522 200.257 92.4024 201.858 87.1701ZM209.027 135.264H302.973C292.795 150.363 275.538 160.313 256 160.313C236.462 160.313 219.205 150.363 209.027 135.264V135.264Z" fill="#00358E"/>
</g>
<defs>
<clipPath id="clip0">
<rect width="512" height="512" fill="white"/>
</clipPath>
</defs>
</svg>
