<svg width="24" height="24" viewBox="0 0 24 24" fill="none" xmlns="http://www.w3.org/2000/svg">
<circle cx="12" cy="12" r="11.5" fill="#F2F3F5" stroke="#333333"/>
<path d="M13.1739 11.9986L16.7537 8.42703C16.9105 8.27026 16.9986 8.05764 16.9986 7.83594C16.9986 7.61423 16.9105 7.40161 16.7537 7.24484C16.597 7.08807 16.3843 7 16.1626 7C15.9409 7 15.7283 7.08807 15.5715 7.24484L12 10.8247L8.42845 7.24484C8.27168 7.08807 8.05906 7 7.83736 7C7.61565 7 7.40303 7.08807 7.24626 7.24484C7.08949 7.40161 7.00142 7.61423 7.00142 7.83594C7.00142 8.05764 7.08949 8.27026 7.24626 8.42703L10.8261 11.9986L7.24626 15.5701C7.16823 15.6475 7.10629 15.7396 7.06403 15.8411C7.02176 15.9425 7 16.0513 7 16.1612C7 16.2711 7.02176 16.3799 7.06403 16.4814C7.10629 16.5828 7.16823 16.6749 7.24626 16.7523C7.32365 16.8303 7.41573 16.8923 7.51718 16.9346C7.61864 16.9768 7.72745 16.9986 7.83736 16.9986C7.94726 16.9986 8.05608 16.9768 8.15753 16.9346C8.25898 16.8923 8.35106 16.8303 8.42845 16.7523L12 13.1724L15.5715 16.7523C15.6489 16.8303 15.741 16.8923 15.8425 16.9346C15.9439 16.9768 16.0527 16.9986 16.1626 16.9986C16.2725 16.9986 16.3814 16.9768 16.4828 16.9346C16.5843 16.8923 16.6763 16.8303 16.7537 16.7523C16.8318 16.6749 16.8937 16.5828 16.936 16.4814C16.9782 16.3799 17 16.2711 17 16.1612C17 16.0513 16.9782 15.9425 16.936 15.8411C16.8937 15.7396 16.8318 15.6475 16.7537 15.5701L13.1739 11.9986Z" fill="#333333"/>
</svg>
