<svg width="496" height="512" viewBox="0 0 496 512" fill="none" xmlns="http://www.w3.org/2000/svg">
<g clip-path="url(#clip0)">
<path d="M442.667 490.667H37.3333C7.936 490.667 -16 466.752 -16 437.334V202.667C-16 173.248 7.936 149.333 37.3333 149.333H442.667C472.064 149.333 496 173.248 496 202.667V437.334C496 466.752 472.064 490.667 442.667 490.667ZM37.3333 170.667C19.6907 170.667 5.33333 185.024 5.33333 202.667V437.334C5.33333 454.976 19.6907 469.334 37.3333 469.334H442.667C460.309 469.334 474.667 454.976 474.667 437.334V202.667C474.667 185.024 460.309 170.667 442.667 170.667H37.3333Z" fill="#00358E"/>
<path d="M464 128C458.112 128 453.333 123.221 453.333 117.333V95.9998C453.333 78.3572 438.976 63.9998 421.333 63.9998H58.6666C41.024 63.9998 26.6666 78.3572 26.6666 95.9998V117.333C26.6666 123.221 21.888 128 16 128C10.112 128 5.33331 123.221 5.33331 117.333V95.9998C5.33331 66.5812 29.2693 42.6665 58.6666 42.6665H421.333C450.731 42.6665 474.667 66.5812 474.667 95.9998V117.333C474.667 123.221 469.888 128 464 128Z" fill="#00358E"/>
<path d="M421.333 341.333H314.667C308.779 341.333 304 336.555 304 330.667V224C304 218.112 308.779 213.333 314.667 213.333H421.333C427.221 213.333 432 218.112 432 224V330.667C432 336.555 427.221 341.333 421.333 341.333ZM325.333 320H410.667V234.667H325.333V320Z" fill="#00358E"/>
<path d="M165.333 341.333H58.6667C52.7787 341.333 48 336.555 48 330.667C48 324.779 52.7787 320 58.6667 320H165.333C171.221 320 176 324.779 176 330.667C176 336.555 171.221 341.333 165.333 341.333Z" fill="#00358E"/>
<path d="M250.667 405.333H58.6667C52.7787 405.333 48 400.555 48 394.667C48 388.779 52.7787 384 58.6667 384H250.667C256.555 384 261.333 388.779 261.333 394.667C261.333 400.555 256.555 405.333 250.667 405.333Z" fill="#00358E"/>
</g>
<defs>
<clipPath id="clip0">
<rect width="512" height="512" fill="white" transform="translate(-16)"/>
</clipPath>
</defs>
</svg>
