<svg width="14" height="14" viewBox="0 0 14 14" fill="none" xmlns="http://www.w3.org/2000/svg">
<path d="M13.444 3.832V11.165C13.4434 11.6512 13.2503 12.1173 12.9067 12.4612C12.5631 12.8052 12.0972 12.9989 11.611 13H1.83301C1.34719 12.9989 0.88155 12.8055 0.538025 12.4619C0.1945 12.1184 0.0010567 11.6528 0 11.167V3.83401C0.00079252 3.34802 0.194105 2.88213 0.537659 2.53839C0.881213 2.19465 1.34702 2.00106 1.83301 2H11.611C12.0967 2.00106 12.5621 2.19438 12.9056 2.53769C13.2491 2.881 13.4426 3.34636 13.444 3.832ZM12.156 3.561C12.1052 3.45957 12.0273 3.3742 11.9309 3.31436C11.8345 3.25452 11.7234 3.22253 11.61 3.22198H1.83197C1.71853 3.22253 1.60749 3.25452 1.51111 3.31436C1.41473 3.3742 1.33682 3.45957 1.28601 3.561L6.72101 7.36099L12.156 3.561ZM12.221 5.008L7.07202 8.608C6.9694 8.67972 6.84718 8.71817 6.72198 8.71817C6.59679 8.71817 6.47463 8.67972 6.37201 8.608L1.22198 5.008V11.167C1.22303 11.3287 1.28774 11.4835 1.4021 11.5979C1.51646 11.7122 1.67128 11.777 1.83301 11.778H11.611C11.7727 11.777 11.9275 11.7122 12.0419 11.5979C12.1562 11.4835 12.2209 11.3287 12.222 11.167L12.221 5.008Z" fill="#00358E"/>
</svg>
