<svg width="14" height="14" viewBox="0 0 14 14" fill="none" xmlns="http://www.w3.org/2000/svg">
<path d="M3.36301 6.32103V4.54903C3.36346 3.67084 3.68986 2.82409 4.27896 2.17281C4.86807 1.52153 5.67794 1.11209 6.55168 1.02382C7.42542 0.93555 8.30082 1.17473 9.00829 1.69502C9.71575 2.21532 10.2049 2.97968 10.381 3.84003C10.3987 3.91692 10.4008 3.99658 10.3872 4.0743C10.3736 4.15202 10.3446 4.22623 10.3019 4.29256C10.2592 4.35889 10.2036 4.41599 10.1384 4.4605C10.0733 4.50501 9.9999 4.53602 9.92258 4.55171C9.84525 4.5674 9.76557 4.56744 9.68823 4.55185C9.61089 4.53626 9.53746 4.50533 9.47226 4.46091C9.40706 4.41648 9.3514 4.35946 9.30859 4.29318C9.26579 4.22691 9.23669 4.15273 9.22301 4.07503C9.10666 3.50043 8.78086 2.98959 8.30893 2.64177C7.837 2.29395 7.25262 2.13398 6.66933 2.19295C6.08604 2.25191 5.5455 2.5256 5.15273 2.96083C4.75995 3.39607 4.543 3.96178 4.54401 4.54804V6.32002H11.044C11.514 6.32002 11.9647 6.50672 12.297 6.83904C12.6293 7.17135 12.816 7.62206 12.816 8.09203V12.227C12.816 12.697 12.6293 13.1477 12.297 13.48C11.9647 13.8123 11.514 13.999 11.044 13.999H2.77299C2.54029 13.9992 2.30984 13.9534 2.0948 13.8645C1.87976 13.7756 1.68435 13.6452 1.51971 13.4807C1.35508 13.3163 1.22444 13.121 1.13527 12.9061C1.0461 12.6911 1.00013 12.4607 1 12.228V8.09303C1 7.62307 1.1867 7.17234 1.51901 6.84003C1.85133 6.50771 2.30204 6.32103 2.772 6.32103H3.36301ZM2.772 7.50302C2.69439 7.50302 2.61754 7.51832 2.54584 7.54802C2.47413 7.57772 2.40897 7.62125 2.3541 7.67613C2.29922 7.73101 2.25568 7.79616 2.22598 7.86786C2.19628 7.93956 2.181 8.01641 2.181 8.09403V12.229C2.181 12.3066 2.19628 12.3835 2.22598 12.4552C2.25568 12.5269 2.29922 12.592 2.3541 12.6469C2.40897 12.7018 2.47413 12.7453 2.54584 12.775C2.61754 12.8047 2.69439 12.82 2.772 12.82H11.043C11.1206 12.82 11.1975 12.8047 11.2692 12.775C11.3409 12.7453 11.406 12.7018 11.4609 12.6469C11.5158 12.592 11.5593 12.5269 11.589 12.4552C11.6187 12.3835 11.634 12.3066 11.634 12.229V8.09403C11.634 8.01641 11.6187 7.93956 11.589 7.86786C11.5593 7.79616 11.5158 7.73101 11.4609 7.67613C11.406 7.62125 11.3409 7.57772 11.2692 7.54802C11.1975 7.51832 11.1206 7.50302 11.043 7.50302H2.772Z" fill="#00358E"/>
</svg>
