<svg width="14" height="14" viewBox="0 0 14 14" fill="none" xmlns="http://www.w3.org/2000/svg">
<path d="M10.1503 12.8337C7.76874 12.8306 5.48559 11.8832 3.80156 10.1992C2.11753 8.51513 1.17008 6.23197 1.16699 3.85039C1.16699 3.13873 1.4497 2.45621 1.95292 1.95299C2.45614 1.44977 3.13866 1.16706 3.85033 1.16706C4.00102 1.16591 4.15147 1.17959 4.29949 1.20789C4.44259 1.22907 4.58326 1.26424 4.71949 1.31289C4.8153 1.34651 4.90068 1.40455 4.96718 1.48128C5.03368 1.55802 5.079 1.65078 5.09866 1.75039L5.89783 5.25039C5.91937 5.3454 5.91677 5.44428 5.89028 5.53802C5.86379 5.63177 5.81424 5.71738 5.74616 5.78706C5.67033 5.86873 5.66449 5.87456 4.94699 6.24789C5.52157 7.50839 6.52969 8.52065 7.78783 9.10039C8.16699 8.37706 8.17282 8.37123 8.25449 8.29539C8.32417 8.22731 8.40978 8.17776 8.50353 8.15127C8.59727 8.12478 8.69616 8.12219 8.79116 8.14373L12.2912 8.94289C12.3876 8.96527 12.4767 9.01181 12.5502 9.07814C12.6237 9.14447 12.6791 9.22841 12.7112 9.32206C12.7604 9.46052 12.7975 9.603 12.822 9.74789C12.8455 9.8945 12.8572 10.0428 12.857 10.1912C12.8462 10.8998 12.5556 11.5754 12.0485 12.0705C11.5414 12.5656 10.859 12.84 10.1503 12.8337ZM3.85033 2.33373C3.44855 2.33526 3.06368 2.49555 2.77958 2.77964C2.49548 3.06374 2.3352 3.44862 2.33366 3.85039C2.3352 5.92303 3.15924 7.91033 4.62481 9.3759C6.09039 10.8415 8.07769 11.6655 10.1503 11.6671C10.5521 11.6655 10.937 11.5052 11.2211 11.2211C11.5052 10.937 11.6655 10.5522 11.667 10.1504V9.95789L8.96033 9.33373L8.79116 9.65456C8.52866 10.1621 8.33616 10.5296 7.84616 10.3312C6.87951 9.98523 6.00207 9.42825 5.27759 8.70074C4.55311 7.97323 3.99979 7.09348 3.65783 6.12539C3.44783 5.67039 3.84449 5.46039 4.34616 5.19789L4.66699 5.04039L4.04283 2.33373H3.85033Z" fill="#00358E"/>
</svg>
