<svg width="14" height="14" viewBox="0 0 14 14" fill="none" xmlns="http://www.w3.org/2000/svg">
<path d="M6.99999 7.88564C2.79351 7.88564 0.476868 9.8756 0.476868 13.4891C0.476868 13.7713 0.705598 14 0.987813 14H13.0121C13.2944 14 13.5231 13.7713 13.5231 13.4891C13.5231 9.8758 11.2065 7.88564 6.99999 7.88564ZM1.51735 12.9781C1.71833 10.2764 3.56029 8.90755 6.99999 8.90755C10.4397 8.90755 12.2817 10.2764 12.4828 12.9781H1.51735V12.9781Z" fill="#00358E"/>
<path d="M7.00001 0C5.06776 0 3.61072 1.48635 3.61072 3.45726C3.61072 5.48589 5.13114 7.13609 7.00001 7.13609C8.86888 7.13609 10.3893 5.48589 10.3893 3.45743C10.3893 1.48635 8.93226 0 7.00001 0ZM7.00001 6.11436C5.69454 6.11436 4.63261 4.92248 4.63261 3.45743C4.63261 2.04619 5.62828 1.02189 7.00001 1.02189C8.34978 1.02189 9.36741 2.06883 9.36741 3.45743C9.36741 4.92248 8.30549 6.11436 7.00001 6.11436Z" fill="#00358E"/>
</svg>
