<svg width="14" height="14" viewBox="0 0 14 14" fill="none" xmlns="http://www.w3.org/2000/svg">
<path fill-rule="evenodd" clip-rule="evenodd" d="M2 3H12C12.5523 3 13 3.44772 13 4V11C13 11.5523 12.5523 12 12 12H2C1.44772 12 1 11.5523 1 11V4C1 3.44772 1.44772 3 2 3ZM0 4C0 2.89543 0.895431 2 2 2H12C13.1046 2 14 2.89543 14 4V11C14 12.1046 13.1046 13 12 13H2C0.89543 13 0 12.1046 0 11V4ZM2.98384 7.8855L2.33195 8.25862L2 7.68875L2.6519 7.31579L2 6.94283L2.33195 6.37296L2.98384 6.74607V6H3.64774V6.74607L4.29963 6.37296L4.63158 6.94283L3.97968 7.31579L4.63158 7.68875L4.29963 8.25862L3.64774 7.8855V8.63158H2.98384V7.8855ZM6.66805 7.8855L6.01616 8.25862L5.68421 7.68875L6.33611 7.31579L5.68421 6.94283L6.01616 6.37296L6.66805 6.74607V6H7.33195V6.74607L7.98384 6.37296L8.31579 6.94283L7.66389 7.31579L8.31579 7.68875L7.98384 8.25862L7.33195 7.8855V8.63158H6.66805V7.8855ZM9.70037 8.25862L10.3523 7.8855V8.63158H11.0162V7.8855L11.6681 8.25862L12 7.68875L11.3481 7.31579L12 6.94283L11.6681 6.37296L11.0162 6.74607V6H10.3523V6.74607L9.70037 6.37296L9.36842 6.94283L10.0203 7.31579L9.36842 7.68875L9.70037 8.25862Z" fill="#00358E"/>
</svg>
