<svg width="18" height="18" viewBox="0 0 18 18" fill="none" xmlns="http://www.w3.org/2000/svg">
<path fill-rule="evenodd" clip-rule="evenodd" d="M4.50017 4.5H13.5V5.25006C13.5 5.66427 13.8358 6.00006 14.25 6.00006C14.6642 6.00006 15 5.66427 15 5.25006V3.75006V3.75C15 3.72411 14.9987 3.69853 14.9961 3.67332C14.9577 3.29512 14.6383 3 14.25 3H3.75C3.33579 3 3 3.33579 3 3.75C3 3.75542 3.00006 3.76082 3.00017 3.76621V5.25006C3.00017 5.66427 3.33596 6.00006 3.75017 6.00006C4.16439 6.00006 4.50017 5.66427 4.50017 5.25006V4.5Z" fill="#00358E"/>
<path fill-rule="evenodd" clip-rule="evenodd" d="M5.66459 10.4211C5.76873 10.4732 5.88357 10.5003 6 10.5003C6.16228 10.5003 6.32018 10.4477 6.45 10.3503L8.24967 8.99526C8.24966 8.9969 8.24966 8.99854 8.24966 9.00018V15.0002C8.24966 15.1991 8.32867 15.3899 8.46933 15.5305C8.60998 15.6712 8.80074 15.7502 8.99966 15.7502C9.19857 15.7502 9.38933 15.6712 9.52999 15.5305C9.67064 15.3899 9.74966 15.1991 9.74966 15.0002V9.00018C9.74966 8.98598 9.74925 8.97183 9.74845 8.95773L11.565 10.2378C11.6456 10.2954 11.7368 10.3364 11.8334 10.3585C11.9299 10.3806 12.0299 10.3834 12.1275 10.3666C12.2251 10.3499 12.3185 10.314 12.4021 10.261C12.4858 10.208 12.5582 10.1389 12.615 10.0578C12.7289 9.89553 12.7739 9.69476 12.7401 9.49941C12.7064 9.30406 12.5967 9.13001 12.435 9.01531L9.435 6.90031C9.30655 6.80645 9.15159 6.75586 8.9925 6.75586C8.83341 6.75586 8.67845 6.80645 8.55 6.90031L5.55 9.15031C5.47121 9.2094 5.40482 9.28344 5.35464 9.36819C5.30446 9.45293 5.27147 9.54674 5.25754 9.64424C5.24361 9.74174 5.24902 9.84103 5.27346 9.93644C5.29791 10.0319 5.34091 10.1215 5.4 10.2003C5.46986 10.2935 5.56045 10.3691 5.66459 10.4211Z" fill="#00358E"/>
</svg>
