<svg width="46" height="46" viewBox="0 0 46 46" fill="none" xmlns="http://www.w3.org/2000/svg">
<g filter="url(#filter0_d)">
<circle cx="21" cy="21" r="18" fill="#FDFDFD"/>
</g>
<path d="M24.7496 13.5002C24.0363 13.5057 23.3326 13.6639 22.6857 13.9644C22.0388 14.2648 21.4638 14.7004 20.9996 15.2419C20.5353 14.7004 19.9603 14.2648 19.3134 13.9644C18.6666 13.6639 17.9628 13.5057 17.2496 13.5002C16.646 13.4943 16.0474 13.6088 15.4886 13.8371C14.9299 14.0653 14.4223 14.4027 13.9955 14.8295C13.5687 15.2563 13.2313 15.7639 13.0031 16.3226C12.7749 16.8814 12.6603 17.48 12.6662 18.0835C12.6662 21.2336 15.4996 23.8002 19.7912 27.7002L20.9996 28.7919L22.2079 27.6919C26.4996 23.8002 29.3329 21.2336 29.3329 18.0835C29.3388 17.48 29.2243 16.8814 28.996 16.3226C28.7678 15.7639 28.4304 15.2563 28.0036 14.8295C27.5768 14.4027 27.0692 14.0653 26.5105 13.8371C25.9517 13.6088 25.3531 13.4943 24.7496 13.5002ZM21.0829 26.4585L20.9996 26.5419L20.9162 26.4585C16.9496 22.8669 14.3329 20.4919 14.3329 18.0835C14.3235 17.698 14.3926 17.3145 14.5358 16.9564C14.6791 16.5983 14.8936 16.273 15.1663 16.0003C15.439 15.7276 15.7643 15.5131 16.1224 15.3698C16.4805 15.2266 16.864 15.1575 17.2496 15.1669C17.883 15.17 18.5017 15.3576 19.0301 15.7069C19.5585 16.0562 19.9736 16.552 20.2246 17.1336H21.7829C22.0312 16.5518 22.4445 16.0555 22.9717 15.7059C23.4989 15.3564 24.117 15.169 24.7496 15.1669C25.1351 15.1575 25.5186 15.2266 25.8767 15.3698C26.2348 15.5131 26.5601 15.7276 26.8328 16.0003C27.1055 16.273 27.32 16.5983 27.4633 16.9564C27.6066 17.3145 27.6756 17.698 27.6662 18.0835C27.6662 20.4919 25.0496 22.8669 21.0829 26.4585Z" fill="#315DF7"/>
<defs>
<filter id="filter0_d" x="0" y="0" width="46" height="46" filterUnits="userSpaceOnUse" color-interpolation-filters="sRGB">
<feFlood flood-opacity="0" result="BackgroundImageFix"/>
<feColorMatrix in="SourceAlpha" type="matrix" values="0 0 0 0 0 0 0 0 0 0 0 0 0 0 0 0 0 0 127 0"/>
<feOffset dx="2" dy="2"/>
<feGaussianBlur stdDeviation="2.5"/>
<feColorMatrix type="matrix" values="0 0 0 0 0 0 0 0 0 0.207843 0 0 0 0 0.556863 0 0 0 0.15 0"/>
<feBlend mode="normal" in2="BackgroundImageFix" result="effect1_dropShadow"/>
<feBlend mode="normal" in="SourceGraphic" in2="effect1_dropShadow" result="shape"/>
</filter>
</defs>
</svg>
