<svg width="18" height="16" viewBox="0 0 18 16" fill="none" xmlns="http://www.w3.org/2000/svg">
<path d="M9.00005 15.7919L7.79172 14.6919C3.50005 10.8002 0.666721 8.23355 0.666721 5.08355C0.660819 4.48002 0.775341 3.88137 1.00358 3.32263C1.23183 2.76389 1.56921 2.25627 1.996 1.82949C2.42278 1.40271 2.93039 1.06533 3.48913 0.837081C4.04787 0.608837 4.64652 0.494315 5.25005 0.500217C5.96328 0.505657 6.66705 0.663931 7.31393 0.964371C7.96082 1.26481 8.53577 1.70044 9.00005 2.24188C9.46434 1.70044 10.0393 1.26481 10.6862 0.964371C11.3331 0.663931 12.0368 0.505657 12.7501 0.500217C13.3536 0.494315 13.9522 0.608837 14.511 0.837081C15.0697 1.06533 15.5773 1.40271 16.0041 1.82949C16.4309 2.25627 16.7683 2.76389 16.9965 3.32263C17.2248 3.88137 17.3393 4.48002 17.3334 5.08355C17.3334 8.23355 14.5001 10.8002 10.2084 14.7002L9.00005 15.7919Z" fill="#315DF7"/>
</svg>
