  <svg
                width="25"
                height="24"
                viewBox="0 0 25 24"
                fill="none"
                xmlns="http://www.w3.org/2000/svg"
              >
                <path
                  d="M12.5915 21.5C13.1174 21.4984 13.6212 21.2872 13.9931 20.9125C14.3649 20.5377 14.5745 20.0299 14.5761 19.5H10.607C10.607 20.0304 10.8161 20.5391 11.1882 20.9142C11.5604 21.2893 12.0652 21.5 12.5915 21.5ZM18.5452 15.5V10.5C18.5452 7.43 16.9178 4.86 14.0799 4.18V3.5C14.0799 3.10218 13.9231 2.72064 13.644 2.43934C13.3649 2.15804 12.9863 2 12.5915 2C12.1968 2 11.8182 2.15804 11.5391 2.43934C11.2599 2.72064 11.1031 3.10218 11.1031 3.5V4.18C8.25528 4.86 6.63787 7.42 6.63787 10.5V15.5L4.65332 17.5V18.5H20.5297V17.5L18.5452 15.5Z"
                  fill="#FDFDFD"
                />
              </svg>
            