<svg width="18" height="18" viewBox="0 0 18 18" fill="none" xmlns="http://www.w3.org/2000/svg">
<path d="M15 3.00001H3.00001C2.80324 2.99951 2.60832 3.03802 2.42652 3.11332C2.24473 3.18861 2.07967 3.2992 1.94088 3.43869C1.80209 3.57818 1.69233 3.74379 1.61794 3.92596C1.54356 4.10813 1.50602 4.30324 1.50751 4.50001L1.50001 13.5C1.49932 13.6972 1.53764 13.8926 1.61278 14.0749C1.68791 14.2572 1.79838 14.4228 1.9378 14.5622C2.07723 14.7016 2.24286 14.8121 2.42516 14.8872C2.60747 14.9624 2.80283 15.0007 3.00001 15H15C15.1972 15.0007 15.3926 14.9624 15.5749 14.8872C15.7572 14.8121 15.9228 14.7016 16.0622 14.5622C16.2016 14.4228 16.3121 14.2572 16.3872 14.0749C16.4624 13.8926 16.5007 13.6972 16.5 13.5V4.50001C16.5007 4.30283 16.4624 4.10747 16.3872 3.92516C16.3121 3.74286 16.2016 3.57723 16.0622 3.4378C15.9228 3.29838 15.7572 3.18791 15.5749 3.11278C15.3926 3.03764 15.1972 2.99932 15 3.00001ZM15 13.5H3.00001V9.00001H15V13.5ZM15 6.00001H3.00001V4.50001H15V6.00001Z" fill="white"/>
</svg>
