<svg width="22" height="20" viewBox="0 0 22 20" fill="none" xmlns="http://www.w3.org/2000/svg">
<path d="M13.1214 8.47998C12.9339 8.29251 12.6796 8.1872 12.4144 8.1872C12.1493 8.1872 11.895 8.29251 11.7074 8.47998L11.0004 9.18598C10.816 9.37701 10.5953 9.52937 10.3513 9.63419C10.1072 9.73901 9.84481 9.79418 9.57925 9.79649C9.31369 9.79879 9.05033 9.74819 8.80454 9.64763C8.55875 9.54707 8.33544 9.39856 8.14766 9.21077C7.95987 9.02299 7.81137 8.79969 7.7108 8.55389C7.61024 8.3081 7.55964 8.04474 7.56195 7.77918C7.56425 7.51362 7.61943 7.25118 7.72424 7.00718C7.82906 6.76317 7.98143 6.54248 8.17245 6.35799L13.8024 0.725989C15.1354 0.422815 16.53 0.547587 17.7879 1.08256C19.0458 1.61754 20.1031 2.53549 20.8093 3.70588C21.5156 4.87627 21.8349 6.23953 21.7218 7.60182C21.6087 8.9641 21.069 10.2561 20.1794 11.294L18.0714 13.429L13.1214 8.47899V8.47998ZM2.16145 2.46799C3.19621 1.43337 4.54967 0.777967 6.00301 0.607755C7.45635 0.437542 8.92462 0.762464 10.1704 1.52999L6.75745 4.94399C6.01825 5.68171 5.59688 6.67929 5.58338 7.72355C5.56989 8.76781 5.96534 9.77593 6.68523 10.5325C7.40512 11.2891 8.39236 11.7341 9.436 11.7725C10.4796 11.8109 11.4969 11.4396 12.2704 10.738L12.4144 10.601L16.6574 14.843L12.4144 19.086C12.0394 19.4609 11.5308 19.6716 11.0004 19.6716C10.4701 19.6716 9.9615 19.4609 9.58645 19.086L2.16045 11.66C0.94158 10.441 0.256836 8.7878 0.256836 7.06399C0.256836 5.34017 0.94158 3.68696 2.16045 2.46799H2.16145Z" fill="#00358E"/>
</svg>
