<svg width="18" height="18" viewBox="0 0 18 18" fill="none" xmlns="http://www.w3.org/2000/svg">
<path d="M15 3H3C2.60348 3.00198 2.22387 3.16089 1.94418 3.44198C1.6645 3.72307 1.5075 4.10347 1.5075 4.5L1.5 13.5C1.50119 13.8975 1.6596 14.2783 1.94065 14.5593C2.2217 14.8404 2.60254 14.9988 3 15H15C15.3975 14.9988 15.7783 14.8404 16.0594 14.5593C16.3404 14.2783 16.4988 13.8975 16.5 13.5V4.5C16.4988 4.10254 16.3404 3.7217 16.0594 3.44065C15.7783 3.1596 15.3975 3.00119 15 3ZM15 6L9 9.75L3 6V4.5L9 8.25L15 4.5V6Z" fill="white"/>
</svg>
