 <svg
                width="39"
                height="38"
                viewBox="0 0 39 38"
                fill="none"
                xmlns="http://www.w3.org/2000/svg"
              >
                <ellipse cx="19.6218" cy="19" rx="18.8532" ry="19" fill="#FDFDFD" />
                <path
                  d="M21.375 17.7337C21.2199 17.5775 21.0096 17.4897 20.7904 17.4897C20.5711 17.4897 20.3608 17.5775 20.2058 17.7337L19.6211 18.322C19.4686 18.4812 19.2861 18.6082 19.0843 18.6955C18.8826 18.7829 18.6656 18.8289 18.446 18.8308C18.2264 18.8327 18.0086 18.7905 17.8054 18.7067C17.6021 18.6229 17.4175 18.4992 17.2622 18.3427C17.1069 18.1862 16.9841 18.0001 16.901 17.7953C16.8178 17.5905 16.776 17.371 16.7779 17.1497C16.7798 16.9284 16.8254 16.7097 16.9121 16.5064C16.9987 16.303 17.1247 16.1191 17.2827 15.9654L21.9381 11.272C23.0403 11.0194 24.1935 11.1234 25.2337 11.5692C26.2738 12.015 27.1481 12.78 27.7321 13.7553C28.3161 14.7306 28.5801 15.8667 28.4866 17.0019C28.3931 18.1371 27.9468 19.2138 27.2112 20.0787L25.4681 21.8579L21.375 17.7329V17.7337ZM12.3122 12.7237C13.1679 11.8615 14.287 11.3154 15.4888 11.1735C16.6906 11.0317 17.9047 11.3024 18.9348 11.942L16.1126 14.787C15.5014 15.4018 15.153 16.2331 15.1418 17.1033C15.1306 17.9736 15.4576 18.8137 16.0529 19.4442C16.6482 20.0746 17.4645 20.4455 18.3275 20.4775C19.1905 20.5095 20.0317 20.2001 20.6713 19.6154L20.7904 19.5012L24.2989 23.0362L20.7904 26.572C20.4802 26.8845 20.0597 27.06 19.6211 27.06C19.1826 27.06 18.7621 26.8845 18.4519 26.572L12.3114 20.3837C11.3035 19.3679 10.7373 17.9902 10.7373 16.5537C10.7373 15.1172 11.3035 13.7395 12.3114 12.7237H12.3122Z"
                  fill="#00358E"
                />
              </svg>