 <svg
                width="39"
                height="38"
                viewBox="0 0 39 38"
                fill="none"
                xmlns="http://www.w3.org/2000/svg"
              >
                <ellipse cx="19.2194" cy="19" rx="18.8532" ry="19" fill="#FDFDFD" />
                <path
                  d="M15.0856 20.6667V11.5H11.7781C11.5588 11.5 11.3484 11.5878 11.1934 11.7441C11.0383 11.9004 10.9512 12.1123 10.9512 12.3333V20.6667H15.0856ZM21.7008 20.6667V11.5H16.7394V20.6667H21.7008ZM27.4891 20.6667V12.3333C27.4891 12.1123 27.402 11.9004 27.2469 11.7441C27.0918 11.5878 26.8815 11.5 26.6622 11.5H23.3546V20.6667H27.4891ZM26.6622 26.5C26.8815 26.5 27.0918 26.4122 27.2469 26.2559C27.402 26.0996 27.4891 25.8877 27.4891 25.6667V22.3333H10.9512V25.6667C10.9512 25.8877 11.0383 26.0996 11.1934 26.2559C11.3484 26.4122 11.5588 26.5 11.7781 26.5H26.6622Z"
                  fill="#00358E"
                />
              </svg>