 <svg
                width="39"
                height="38"
                viewBox="0 0 39 38"
                fill="none"
                xmlns="http://www.w3.org/2000/svg"
              >
                <ellipse cx="19.8181" cy="19" rx="18.8532" ry="19" fill="#FDFDFD" />
                <path
                  d="M28.0867 23.1687C28.0864 24.3083 27.6998 25.4136 26.9911 26.3017C26.2824 27.1897 25.294 27.8072 24.1896 28.052L23.662 26.457C24.1451 26.3768 24.6046 26.1896 25.0072 25.9089C25.4099 25.6282 25.7457 25.261 25.9906 24.8337H23.9523C23.5137 24.8337 23.093 24.6581 22.7829 24.3455C22.4727 24.0329 22.2985 23.609 22.2985 23.167V19.8337C22.2985 19.3916 22.4727 18.9677 22.7829 18.6551C23.093 18.3426 23.5137 18.167 23.9523 18.167H26.3817C26.1799 16.5561 25.4017 15.0747 24.1932 14.0009C22.9847 12.9271 21.4289 12.3346 19.8178 12.3346C18.2066 12.3346 16.6508 12.9271 15.4423 14.0009C14.2338 15.0747 13.4557 16.5561 13.2539 18.167H15.6833C16.1219 18.167 16.5426 18.3426 16.8527 18.6551C17.1629 18.9677 17.3371 19.3916 17.3371 19.8337V23.167C17.3371 23.609 17.1629 24.0329 16.8527 24.3455C16.5426 24.6581 16.1219 24.8337 15.6833 24.8337H13.2026C12.764 24.8337 12.3434 24.6581 12.0332 24.3455C11.7231 24.0329 11.5488 23.609 11.5488 23.167V19.0003C11.5488 14.3978 15.2508 10.667 19.8178 10.667C24.3847 10.667 28.0867 14.3978 28.0867 19.0003V23.1687Z"
                  fill="#00358E"
                />
              </svg>