<svg
                width="39"
                height="38"
                viewBox="0 0 39 38"
                fill="none"
                xmlns="http://www.w3.org/2000/svg"
              >
                <ellipse cx="19.4167" cy="19" rx="18.8532" ry="19" fill="#FDFDFD" />
                <path
                  d="M15.281 18.167C14.7923 18.167 14.3084 18.07 13.857 17.8815C13.4055 17.6931 12.9953 17.4169 12.6498 17.0686C12.3043 16.7204 12.0302 16.307 11.8432 15.8521C11.6562 15.3971 11.5599 14.9094 11.5599 14.417C11.5599 13.9245 11.6562 13.4369 11.8432 12.9819C12.0302 12.527 12.3043 12.1136 12.6498 11.7653C12.9953 11.4171 13.4055 11.1409 13.857 10.9524C14.3084 10.764 14.7923 10.667 15.281 10.667C16.2678 10.667 17.2143 11.0621 17.9121 11.7653C18.61 12.4686 19.002 13.4224 19.002 14.417C19.002 15.4116 18.61 16.3654 17.9121 17.0686C17.2143 17.7719 16.2678 18.167 15.281 18.167ZM23.9634 21.5003C23.0861 21.5003 22.2448 21.1491 21.6246 20.524C21.0043 19.8989 20.6558 19.051 20.6558 18.167C20.6558 17.2829 21.0043 16.4351 21.6246 15.81C22.2448 15.1848 23.0861 14.8337 23.9634 14.8337C24.8406 14.8337 25.6819 15.1848 26.3022 15.81C26.9225 16.4351 27.2709 17.2829 27.2709 18.167C27.2709 19.051 26.9225 19.8989 26.3022 20.524C25.6819 21.1491 24.8406 21.5003 23.9634 21.5003ZM23.9634 22.3337C24.9502 22.3337 25.8967 22.7287 26.5945 23.432C27.2924 24.1353 27.6844 25.0891 27.6844 26.0837V26.5003H20.2423V26.0837C20.2423 25.0891 20.6344 24.1353 21.3322 23.432C22.03 22.7287 22.9765 22.3337 23.9634 22.3337ZM15.281 19.0003C15.8239 19.0003 16.3615 19.1081 16.8632 19.3175C17.3648 19.5269 17.8206 19.8338 18.2045 20.2207C18.5884 20.6076 18.8929 21.067 19.1007 21.5725C19.3085 22.078 19.4154 22.6198 19.4154 23.167V26.5003H11.1465V23.167C11.1465 22.0619 11.5821 21.0021 12.3574 20.2207C13.1328 19.4393 14.1844 19.0003 15.281 19.0003Z"
                  fill="#00358E"
                />
              </svg>