<svg width="20" height="21" viewBox="0 0 20 21" fill="none" xmlns="http://www.w3.org/2000/svg">
<path d="M20 15.0019C19.9996 16.3694 19.5321 17.6958 18.675 18.7615C17.818 19.8272 16.6227 20.5682 15.287 20.8619L14.649 18.9479C15.2332 18.8517 15.7888 18.627 16.2758 18.2902C16.7627 17.9533 17.1689 17.5126 17.465 16.9999H15C14.4696 16.9999 13.9609 16.7892 13.5858 16.4141C13.2107 16.039 13 15.5303 13 14.9999V10.9999C13 10.4694 13.2107 9.96074 13.5858 9.58566C13.9609 9.21059 14.4696 8.99988 15 8.99988H17.938C17.694 7.06677 16.7529 5.28915 15.2914 4.00055C13.8299 2.71196 11.9484 2.00095 10 2.00095C8.05155 2.00095 6.17007 2.71196 4.70857 4.00055C3.24708 5.28915 2.30603 7.06677 2.062 8.99988H5C5.53043 8.99988 6.03914 9.21059 6.41421 9.58566C6.78929 9.96074 7 10.4694 7 10.9999V14.9999C7 15.5303 6.78929 16.039 6.41421 16.4141C6.03914 16.7892 5.53043 16.9999 5 16.9999H2C1.46957 16.9999 0.960859 16.7892 0.585786 16.4141C0.210714 16.039 0 15.5303 0 14.9999V9.99988C0 4.47688 4.477 -0.00012207 10 -0.00012207C15.523 -0.00012207 20 4.47688 20 9.99988V15.0019Z" fill="#00358E"/>
</svg>
