<svg width="18" height="16" viewBox="0 0 18 16" fill="none" xmlns="http://www.w3.org/2000/svg">
<path d="M12.7501 0.500217C12.0368 0.505657 11.3331 0.663931 10.6862 0.964371C10.0393 1.26481 9.46433 1.70044 9.00005 2.24188C8.53577 1.70044 7.96082 1.26481 7.31393 0.964371C6.66705 0.663931 5.96328 0.505657 5.25005 0.500217C4.64652 0.494315 4.04787 0.608837 3.48913 0.837081C2.93039 1.06533 2.42278 1.40271 1.996 1.82949C1.56921 2.25627 1.23183 2.76389 1.00358 3.32263C0.775341 3.88137 0.660819 4.48002 0.666721 5.08355C0.666721 8.23355 3.50005 10.8002 7.79172 14.7002L9.00005 15.7919L10.2084 14.6919C14.5001 10.8002 17.3334 8.23355 17.3334 5.08355C17.3393 4.48002 17.2248 3.88137 16.9965 3.32263C16.7683 2.76389 16.4309 2.25627 16.0041 1.82949C15.5773 1.40271 15.0697 1.06533 14.511 0.837081C13.9522 0.608837 13.3536 0.494315 12.7501 0.500217ZM9.08339 13.4585L9.00005 13.5419L8.91672 13.4585C4.95005 9.86688 2.33339 7.49188 2.33339 5.08355C2.32402 4.69797 2.39306 4.3145 2.53632 3.9564C2.67958 3.5983 2.89408 3.27303 3.1668 3.0003C3.43953 2.72757 3.76481 2.51308 4.12291 2.36982C4.48101 2.22656 4.86447 2.15752 5.25005 2.16688C5.88345 2.16996 6.50221 2.35764 7.03059 2.70694C7.55898 3.05623 7.97407 3.552 8.22505 4.13355H9.78339C10.0317 3.55176 10.445 3.05546 10.9722 2.70595C11.4994 2.35644 12.1175 2.16903 12.7501 2.16688C13.1356 2.15752 13.5191 2.22656 13.8772 2.36982C14.2353 2.51308 14.5606 2.72757 14.8333 3.0003C15.106 3.27303 15.3205 3.5983 15.4638 3.9564C15.607 4.3145 15.6761 4.69797 15.6667 5.08355C15.6667 7.49188 13.0501 9.86688 9.08339 13.4585Z" fill="#315DF7"/>
</svg>
