<svg width="512" height="512" viewBox="0 0 512 512" fill="none" xmlns="http://www.w3.org/2000/svg">
<path d="M188.416 362.987C153.888 362.989 120.134 352.751 91.4248 333.568C62.7153 314.386 40.339 287.12 27.1259 255.22C13.9127 223.32 10.4562 188.218 17.1934 154.353C23.9306 120.489 40.559 89.3825 64.9755 64.9686C85.2761 44.6703 110.269 29.6917 137.741 21.3595C165.213 13.0273 194.316 11.5987 222.472 17.2002C250.628 22.8017 276.968 35.2604 299.159 53.4728C321.35 71.6852 338.707 95.0892 349.693 121.612C360.678 148.134 364.954 176.957 362.14 205.526C359.326 234.096 349.51 261.531 333.561 285.4C317.613 309.27 296.023 328.838 270.706 342.372C245.388 355.905 217.124 362.986 188.416 362.987V362.987ZM188.416 27.7518C167.311 27.7106 146.406 31.839 126.902 39.9C107.397 47.9609 89.6768 59.7956 74.7589 74.7243C48.3887 101.019 31.9544 135.646 28.2573 172.702C24.5602 209.759 33.8292 246.95 54.4843 277.937C75.1394 308.924 105.902 331.788 141.528 342.632C177.154 353.476 215.439 351.629 249.855 337.405C284.272 323.181 312.69 297.461 330.266 264.63C347.842 231.798 353.487 193.887 346.239 157.359C338.992 120.831 319.3 87.9476 290.521 64.3135C261.741 40.6794 225.656 27.7579 188.416 27.7518V27.7518Z" fill="black"/>
<path d="M254.817 91.4683C253.491 91.4701 252.194 91.088 251.081 90.3682C245.429 86.7352 239.48 83.5851 233.299 80.9515C232.433 80.6176 231.643 80.1129 230.977 79.4675C230.31 78.822 229.78 78.0491 229.418 77.1945C229.056 76.34 228.87 75.4214 228.87 74.4934C228.87 73.5654 229.057 72.647 229.42 71.7927C229.782 70.9385 230.313 70.1659 230.98 69.521C231.648 68.8761 232.438 68.372 233.304 68.0387C234.17 67.7054 235.094 67.5498 236.022 67.5811C236.949 67.6123 237.861 67.8299 238.703 68.2207C245.605 71.1563 252.246 74.6722 258.553 78.7306C259.811 79.5395 260.772 80.7341 261.294 82.1353C261.816 83.5365 261.869 85.0691 261.447 86.5034C261.025 87.9378 260.149 89.1967 258.952 90.0917C257.754 90.9868 256.298 91.4697 254.803 91.4683H254.817Z" fill="black"/>
<path d="M188.402 318.616C154.825 318.661 122.529 305.728 98.2636 282.519C73.9982 259.311 59.6405 227.623 58.1908 194.077C56.7411 160.531 68.3115 127.722 90.4843 102.507C112.657 77.2919 143.717 61.621 177.173 58.769C178.081 58.6798 178.997 58.7737 179.868 59.045C180.739 59.3163 181.547 59.7595 182.244 60.3485C182.94 60.9375 183.512 61.6602 183.924 62.4739C184.337 63.2877 184.582 64.1759 184.645 65.086C184.721 65.9919 184.617 66.9039 184.341 67.7699C184.064 68.6359 183.619 69.4388 183.032 70.1327C182.444 70.8267 181.726 71.3981 180.918 71.8143C180.11 72.2305 179.227 72.4834 178.321 72.5584C156.033 74.5003 134.777 82.8283 117.102 96.5444C99.4262 110.26 86.0811 128.783 78.6657 149.891C71.2503 170.999 70.0792 193.798 75.2928 215.555C80.5064 237.312 91.8836 257.104 108.061 272.559C124.238 288.014 144.528 298.476 166.5 302.692C188.473 306.907 211.194 304.697 231.942 296.326C252.69 287.955 270.584 273.778 283.479 255.496C296.375 237.213 303.724 215.599 304.647 193.245C304.721 191.41 305.521 189.68 306.871 188.435C308.222 187.19 310.011 186.532 311.846 186.606C313.681 186.681 315.411 187.481 316.656 188.831C317.901 190.181 318.559 191.971 318.485 193.806C317.101 227.376 302.79 259.111 278.545 282.373C254.301 305.635 222.001 318.621 188.402 318.616V318.616Z" fill="black"/>
<path d="M300.219 143.222C298.905 143.224 297.618 142.853 296.508 142.151C295.398 141.448 294.511 140.445 293.95 139.257C291.159 133.286 287.849 127.572 284.056 122.181C283.53 121.44 283.154 120.603 282.951 119.717C282.748 118.831 282.722 117.914 282.874 117.017C283.025 116.121 283.352 115.263 283.835 114.493C284.318 113.723 284.948 113.056 285.689 112.53C287.185 111.466 289.043 111.041 290.853 111.347C292.663 111.653 294.278 112.666 295.341 114.162C299.602 120.218 303.325 126.636 306.467 133.342C306.963 134.394 307.187 135.555 307.116 136.716C307.046 137.878 306.683 139.003 306.062 139.987C305.442 140.971 304.582 141.783 303.565 142.347C302.547 142.912 301.403 143.21 300.239 143.215L300.219 143.222Z" fill="black"/>
<path d="M436.736 498.162C428.687 498.177 420.714 496.602 413.275 493.527C405.836 490.451 399.078 485.937 393.389 480.242C392.42 479.266 391.5 478.242 390.587 477.211L268.385 337.38C267.177 335.995 266.568 334.186 266.693 332.352C266.819 330.518 267.667 328.809 269.053 327.6C270.438 326.392 272.247 325.783 274.081 325.909C275.915 326.034 277.624 326.882 278.833 328.268L401 468.03C401.692 468.819 402.432 469.649 403.207 470.431C412.136 479.32 424.226 484.305 436.825 484.293C449.424 484.282 461.505 479.274 470.417 470.369C475.025 465.765 478.637 460.263 481.03 454.205C483.422 448.147 484.543 441.662 484.324 435.152C484.105 428.642 482.55 422.247 479.755 416.364C476.96 410.48 472.986 405.234 468.079 400.951L328.268 278.832C327.584 278.234 327.024 277.507 326.621 276.692C326.218 275.877 325.979 274.991 325.919 274.085C325.858 273.178 325.976 272.268 326.267 271.407C326.558 270.546 327.016 269.75 327.614 269.066C328.213 268.382 328.94 267.822 329.755 267.419C330.569 267.016 331.455 266.777 332.362 266.717C333.269 266.656 334.179 266.774 335.04 267.065C335.901 267.356 336.696 267.814 337.38 268.412L477.143 390.58C486.545 398.801 493.215 409.695 496.262 421.807C499.31 433.919 498.59 446.673 494.199 458.365C489.807 470.057 481.953 480.131 471.686 487.242C461.418 494.353 449.226 498.163 436.736 498.162V498.162Z" fill="black"/>
<path d="M381.232 462.876C379.864 462.875 378.527 462.469 377.389 461.709C376.252 460.949 375.365 459.868 374.842 458.604C374.318 457.34 374.181 455.949 374.448 454.607C374.715 453.265 375.373 452.033 376.341 451.065L451.065 376.341C451.703 375.68 452.467 375.153 453.311 374.79C454.155 374.428 455.063 374.237 455.982 374.229C456.9 374.221 457.811 374.396 458.662 374.744C459.512 375.092 460.285 375.605 460.934 376.255C461.584 376.905 462.098 377.677 462.445 378.527C462.793 379.378 462.968 380.289 462.96 381.208C462.952 382.126 462.762 383.034 462.399 383.878C462.036 384.722 461.509 385.486 460.848 386.124L386.124 460.848C384.827 462.146 383.067 462.875 381.232 462.876V462.876Z" fill="black"/>
</svg>
