<?xml version="1.0" encoding="iso-8859-1"?>
<!-- Generator: Adobe Illustrator 16.0.0, SVG Export Plug-In . SVG Version: 6.00 Build 0)  -->
<!DOCTYPE svg PUBLIC "-//W3C//DTD SVG 1.1//EN" "http://www.w3.org/Graphics/SVG/1.1/DTD/svg11.dtd">
<svg version="1.1" id="Capa_1" xmlns="http://www.w3.org/2000/svg" xmlns:xlink="http://www.w3.org/1999/xlink" x="0px" y="0px"
	 width="90.643px" height="90.643px" viewBox="0 0 90.643 90.643" style="enable-background:new 0 0 90.643 90.643;"
	 xml:space="preserve">
<g>
	<g id="Layer_1_2_">
		<g>
			<g>
				<g>
					<path d="M58.321,24.054h-26v17.81h26V24.054z"/>
				</g>
			</g>
			<g>
				<g>
					<path d="M58.321,48.887h-26v17.811h26V48.887z"/>
				</g>
			</g>
			<g>
				<g>
					<path d="M90.321,41.753v-17.81h-24.5v-7.634h-7.5V0h-26v16.31h-6V0h-26v17.81h24.5v6.245h-24.5v17.81h24.5v7.023h-24.5v17.81
						h24.5v7.635h7.5v16.311h26V74.332h6v16.311h26V72.832h-24.5v-7.023h24.5v-17.81h-24.5v-6.245L90.321,41.753L90.321,41.753z
						 M62.821,71.33h-35V19.309h35V71.33z"/>
				</g>
			</g>
		</g>
	</g>
</g>
<g>
</g>
<g>
</g>
<g>
</g>
<g>
</g>
<g>
</g>
<g>
</g>
<g>
</g>
<g>
</g>
<g>
</g>
<g>
</g>
<g>
</g>
<g>
</g>
<g>
</g>
<g>
</g>
<g>
</g>
</svg>
